<svg width="70" height="70" viewBox="0 0 70 70" fill="none" xmlns="http://www.w3.org/2000/svg">
<path d="M61.0807 37.975C61.6764 32.7557 60.6923 27.4777 58.2559 22.8238C55.8195 18.1698 52.0427 14.3538 47.4141 11.8695C42.7855 9.38519 37.518 8.34676 32.2928 8.88853C27.0677 9.43029 22.1252 11.5273 18.1048 14.9084C14.0843 18.2895 11.1708 22.7991 9.741 27.854C8.31121 32.9088 8.43096 38.2764 10.0847 43.2625C11.7385 48.2485 14.8503 52.6237 19.0175 55.8221C23.1847 59.0206 28.2158 60.8951 33.4599 61.2033M10.4999 26.25H59.4999M10.4999 43.75H39.3749" stroke="#5E5D63" stroke-width="5" stroke-linecap="round" stroke-linejoin="round"/>
<path d="M33.542 8.75C28.6284 16.6239 26.0234 25.7188 26.0234 35C26.0234 44.2812 28.6284 53.3761 33.542 61.25M36.4587 8.75C42.292 18.1008 44.7333 28.9129 43.7737 39.4829M58.3337 61.25L64.167 55.4167L58.3337 49.5833M49.5837 49.5833L43.7503 55.4167L49.5837 61.25" stroke="#5E5D63" stroke-width="5" stroke-linecap="round" stroke-linejoin="round"/>
</svg>
