<svg width="150" height="150" viewBox="0 0 150 150" fill="none" xmlns="http://www.w3.org/2000/svg">
<path d="M18.75 68.75V18.75H68.75V68.75H18.75ZM31.25 56.25H56.25V31.25H31.25V56.25ZM18.75 131.25V81.25H68.75V131.25H18.75ZM31.25 118.75H56.25V93.75H31.25V118.75ZM81.25 68.75V18.75H131.25V68.75H81.25ZM93.75 56.25H118.75V31.25H93.75V56.25ZM118.75 131.25V118.75H131.25V131.25H118.75ZM81.25 93.75V81.25H93.75V93.75H81.25ZM93.75 106.25V93.75H106.25V106.25H93.75ZM81.25 118.75V106.25H93.75V118.75H81.25ZM93.75 131.25V118.75H106.25V131.25H93.75ZM106.25 118.75V106.25H118.75V118.75H106.25ZM106.25 93.75V81.25H118.75V93.75H106.25ZM118.75 106.25V93.75H131.25V106.25H118.75Z" fill="#5E5D63"/>
</svg>
