<svg width="80" height="80" viewBox="0 0 80 80" fill="none" xmlns="http://www.w3.org/2000/svg">
<path d="M26.6667 10C24.8986 10 23.2029 10.7024 21.9526 11.9526C20.7024 13.2029 20 14.8986 20 16.6667V30C20 31.7681 19.2976 33.4638 18.0474 34.714C16.7971 35.9643 15.1014 36.6667 13.3333 36.6667H10V43.3333H13.3333C15.1014 43.3333 16.7971 44.0357 18.0474 45.286C19.2976 46.5362 20 48.2319 20 50V63.3333C20 65.1014 20.7024 66.7971 21.9526 68.0474C23.2029 69.2976 24.8986 70 26.6667 70H33.3333V63.3333H26.6667V46.6667C26.6667 44.8986 25.9643 43.2029 24.714 41.9526C23.4638 40.7024 21.7681 40 20 40C21.7681 40 23.4638 39.2976 24.714 38.0474C25.9643 36.7971 26.6667 35.1014 26.6667 33.3333V16.6667H33.3333V10M53.3333 10C55.1014 10 56.7971 10.7024 58.0474 11.9526C59.2976 13.2029 60 14.8986 60 16.6667V30C60 31.7681 60.7024 33.4638 61.9526 34.714C63.2029 35.9643 64.8986 36.6667 66.6667 36.6667H70V43.3333H66.6667C64.8986 43.3333 63.2029 44.0357 61.9526 45.286C60.7024 46.5362 60 48.2319 60 50V63.3333C60 65.1014 59.2976 66.7971 58.0474 68.0474C56.7971 69.2976 55.1014 70 53.3333 70H46.6667V63.3333H53.3333V46.6667C53.3333 44.8986 54.0357 43.2029 55.286 41.9526C56.5362 40.7024 58.2319 40 60 40C58.2319 40 56.5362 39.2976 55.286 38.0474C54.0357 36.7971 53.3333 35.1014 53.3333 33.3333V16.6667H46.6667V10H53.3333Z" fill="#5E5D63"/>
</svg>
