<svg width="100" height="100" viewBox="0 0 100 100" fill="none" xmlns="http://www.w3.org/2000/svg">
<path d="M20.8333 66.4583L45.8333 80.9375V52.3958L20.8333 37.9167V66.4583ZM54.1667 80.9375L79.1667 66.4583V37.9167L54.1667 52.3958V80.9375ZM25.3125 30.9375L50 45.2083L74.6875 30.9375L50 16.6667L25.3125 30.9375ZM12.5 71.3542V33.4375C12.5 31.9097 12.8653 30.5208 13.5958 29.2708C14.3264 28.0208 15.35 27.0139 16.6667 26.25L45.8333 9.47917C47.1528 8.71528 48.5417 8.33334 50 8.33334C51.4583 8.33334 52.8472 8.71528 54.1667 9.47917L83.3333 26.25C84.6528 27.0139 85.6778 28.0208 86.4083 29.2708C87.1389 30.5208 87.5028 31.9097 87.5 33.4375V66.5625C87.5 68.0903 87.1347 69.4792 86.4042 70.7292C85.6736 71.9792 84.65 72.9861 83.3333 73.75L54.1667 90.5208C52.8472 91.2847 51.4583 91.6667 50 91.6667C48.5417 91.6667 47.1528 91.2847 45.8333 90.5208L12.5 71.3542Z" fill="#5E5D63"/>
</svg>
